<?xml version="1.0" standalone="no"?>
<!DOCTYPE svg PUBLIC "-//W3C//DTD SVG 20010904//EN"
 "http://www.w3.org/TR/2001/REC-SVG-20010904/DTD/svg10.dtd">
<svg version="1.0" xmlns="http://www.w3.org/2000/svg"
 width="800.000000pt" height="800.000000pt" viewBox="0 0 800.000000 800.000000"
 preserveAspectRatio="xMidYMid meet">

<g transform="translate(0.000000,800.000000) scale(0.100000,-0.100000)"
fill="#000000" stroke="none">
<path d="M3845 7204 c-620 -37 -1166 -217 -1660 -545 -810 -539 -1328 -1393
-1425 -2349 -14 -135 -14 -485 0 -620 16 -154 46 -326 85 -474 40 -156 87
-297 99 -299 5 -1 42 21 82 48 48 32 73 55 70 65 -2 8 -20 71 -40 140 -131
448 -153 956 -61 1415 98 491 320 952 643 1335 105 126 312 326 440 428 458
364 1025 593 1612 652 146 14 472 15 615 1 620 -62 1212 -311 1685 -709 157
-132 412 -403 490 -521 l16 -23 86 43 87 43 -22 30 c-61 89 -186 235 -297 350
-526 542 -1219 883 -1970 970 -130 15 -430 26 -535 20z"/>
<path d="M3777 6440 c-731 -84 -1365 -471 -1774 -1083 -491 -736 -554 -1706
-163 -2502 125 -254 253 -436 450 -639 340 -349 728 -571 1190 -680 192 -46
493 -75 630 -61 l70 7 0 52 c0 87 -10 124 -34 129 -20 4 -20 4 2 6 12 0 22 6
22 12 0 7 -7 8 -17 4 -10 -4 -26 -10 -35 -12 -10 -3 -15 -9 -12 -14 3 -5 -36
-9 -86 -9 -51 0 -89 4 -86 9 3 5 -6 12 -22 16 -76 18 -205 137 -286 263 -64
98 -139 250 -187 379 -44 117 -119 365 -119 395 0 17 17 18 393 18 l392 1 119
89 119 90 -531 0 c-292 0 -533 3 -535 8 -9 13 -46 255 -61 397 -17 150 -36
426 -36 512 l0 53 840 0 841 0 -6 -127 c-3 -71 -10 -184 -16 -252 -5 -68 -8
-126 -6 -128 2 -2 44 26 94 61 87 63 90 66 97 112 3 26 6 77 6 114 0 37 3 101
6 143 l7 77 613 0 614 0 0 -49 c0 -64 -26 -265 -48 -366 l-17 -80 79 -48 c43
-26 80 -46 81 -45 5 6 45 196 61 288 21 128 30 495 15 642 -59 571 -314 1109
-716 1513 -366 368 -841 610 -1355 690 -123 19 -478 28 -593 15z m369 -177
l-39 -4 52 -25 c66 -30 174 -134 240 -228 117 -170 249 -491 315 -768 l6 -28
-701 0 -701 0 7 33 c13 57 75 259 112 357 54 149 157 347 228 442 72 95 124
143 206 187 l53 29 -35 5 c-19 2 40 4 131 4 91 0 147 -2 126 -4z m-318 -10
c-16 -2 -40 -2 -55 0 -16 2 -3 4 27 4 30 0 43 -2 28 -4z m435 0 c-13 -2 -35
-2 -50 0 -16 2 -5 4 22 4 28 0 40 -2 28 -4z m-535 -10 c-10 -2 -26 -2 -35 0
-10 3 -2 5 17 5 19 0 27 -2 18 -5z m739 -19 c326 -67 671 -227 928 -432 93
-74 262 -239 339 -332 66 -79 164 -212 173 -236 4 -12 -72 -14 -499 -14 l-504
0 -18 78 c-59 253 -206 616 -320 786 -95 141 -99 144 -196 160 -47 8 -72 14
-56 15 16 1 85 -11 153 -25z m-840 4 c-42 -9 -55 -18 -93 -67 -141 -178 -269
-461 -362 -801 l-40 -145 -506 -3 -507 -2 42 62 c279 416 711 743 1179 893
105 33 276 74 310 73 14 0 3 -5 -23 -10z m-537 -1213 c0 -8 -9 -70 -20 -137
-34 -216 -70 -609 -70 -775 l0 -43 -615 0 -615 0 0 58 c1 208 94 581 205 818
l44 94 535 0 c466 0 536 -2 536 -15z m1679 -37 c32 -159 66 -445 76 -633 3
-60 8 -149 11 -197 l6 -88 -843 0 -842 0 7 143 c13 270 67 746 93 813 4 12
108 14 743 14 l739 0 10 -52z m1302 -58 c60 -136 112 -292 143 -433 27 -119
56 -322 56 -388 l0 -39 -614 0 -613 0 -7 61 c-3 34 -6 92 -6 128 0 147 -63
705 -86 766 -6 13 58 15 537 13 l544 -3 46 -105z m-3067 -1192 c11 -255 47
-594 82 -785 l6 -33 -541 0 -541 0 -19 38 c-109 215 -203 572 -218 825 l-6
107 615 0 615 0 7 -152z m135 -1035 c5 -21 19 -74 30 -118 66 -263 189 -555
307 -730 88 -130 94 -136 166 -151 l63 -14 -54 6 c-88 8 -309 69 -437 119
-416 163 -781 454 -1038 828 l-68 97 511 0 510 0 10 -37z m629 -1020 c-10 -2
-28 -2 -40 0 -13 2 -5 4 17 4 22 1 32 -1 23 -4z m115 -10 c-18 -2 -48 -2 -65
0 -18 2 -4 4 32 4 36 0 50 -2 33 -4z"/>
<path d="M6990 4993 c-41 -19 -76 -36 -78 -37 -1 -2 14 -59 33 -127 47 -163
80 -331 101 -509 22 -199 15 -566 -15 -764 -25 -156 -84 -398 -130 -526 l-30
-85 72 -72 c39 -40 74 -69 78 -65 9 10 73 192 103 292 89 298 126 564 126 900
0 221 -9 347 -41 534 -32 193 -113 487 -135 492 -5 1 -43 -13 -84 -33z"/>
<path d="M5103 2923 l-571 -488 169 -3 169 -2 0 -209 0 -208 -192 -73 c-106
-40 -195 -75 -197 -76 -2 -2 118 -4 267 -4 l272 0 0 318 c0 174 -3 327 -6 340
-6 20 -12 22 -75 22 -38 0 -69 3 -69 8 0 9 800 707 810 707 5 0 189 -160 410
-355 l403 -355 -72 -3 -71 -3 0 -339 0 -340 283 0 282 1 -215 88 -215 89 0
193 0 194 161 5 161 5 -556 484 c-306 267 -561 486 -567 488 -6 2 -268 -216
-581 -484z"/>
<path d="M5440 2525 l0 -105 110 0 110 0 0 105 0 105 -110 0 -110 0 0 -105z"/>
<path d="M5730 2525 l0 -105 105 0 105 0 0 105 0 105 -105 0 -105 0 0 -105z"/>
<path d="M5440 2235 l0 -105 110 0 110 0 0 105 0 105 -110 0 -110 0 0 -105z"/>
<path d="M5730 2235 l0 -105 105 0 105 0 0 105 0 105 -105 0 -105 0 0 -105z"/>
<path d="M1590 1988 l-71 -59 30 -37 c51 -65 292 -294 401 -381 215 -173 535
-363 780 -464 293 -121 609 -201 940 -238 157 -18 538 -15 705 5 439 53 847
184 1233 398 50 28 91 52 89 54 -1 1 -71 12 -154 23 l-152 20 -108 -48 c-411
-185 -828 -273 -1283 -273 -391 0 -733 61 -1090 194 -425 158 -793 399 -1122
736 l-127 129 -71 -59z"/>
<path d="M4450 1755 l0 -35 1240 0 1240 0 0 35 0 35 -1240 0 -1240 0 0 -35z"/>
<path d="M4450 1635 l0 -35 1240 0 1240 0 0 35 0 35 -1240 0 -1240 0 0 -35z"/>
</g>
</svg>
